<?xml version="1.0" encoding="utf-8"?>
<svg viewBox="379.449 185.647 32 32" xmlns="http://www.w3.org/2000/svg">
  <path d="M 407.949 211.646 L 406.149 211.646 C 405.97 211.656 405.793 211.603 405.649 211.496 C 405.523 211.392 405.424 211.26 405.361 211.108 L 404.199 207.896 L 397.949 207.896 L 396.699 211.071 C 396.639 211.217 396.545 211.346 396.424 211.446 C 396.284 211.565 396.106 211.627 395.924 211.621 L 394.199 211.621 L 399.886 197.283 L 402.249 197.283 L 407.949 211.646 Z M 403.536 206.258 L 401.561 201.021 C 401.37 200.514 401.207 199.997 401.074 199.471 C 400.999 199.779 400.92 200.067 400.836 200.333 L 400.599 201.033 L 398.624 206.271 L 403.536 206.258 Z M 395.661 204.283 C 394.382 203.845 393.16 203.253 392.024 202.521 C 393.776 200.64 394.989 198.321 395.536 195.808 L 397.949 195.808 L 397.949 194.146 L 392.086 194.146 C 392.02 193.907 391.936 193.673 391.836 193.446 C 391.536 192.633 391.199 191.646 391.199 191.646 L 389.361 192.271 C 389.361 192.271 389.861 193.383 390.111 194.146 L 382.949 194.146 L 382.949 195.808 L 385.636 195.808 C 386.183 198.331 387.417 200.654 389.199 202.521 C 387.268 203.721 385.157 204.607 382.949 205.146 C 383.416 205.829 383.778 206.404 384.036 206.871 C 386.333 206.101 388.525 205.047 390.561 203.733 C 391.944 204.657 393.44 205.401 395.011 205.946 L 395.661 204.283 Z M 387.486 195.808 L 393.624 195.808 C 393.225 197.943 392.151 199.893 390.561 201.371 C 389.029 199.847 387.963 197.917 387.486 195.808 Z" style="fill: rgb(32, 33, 34);"/>
</svg>